<svg width="468" height="470" viewBox="0 0 468 470" fill="none" xmlns="http://www.w3.org/2000/svg">
<path fill-rule="evenodd" clip-rule="evenodd" d="M376 330.7C401.1 296.3 416 253.9 416 208C416 93.1 322.9 0 208 0C93.1 0 0 93.1 0 208C0 322.9 93.1 416 208 416C253.9 416 296.3 401.2 330.7 376L423.925 469.299L467.418 422.19L376 330.7ZM263.106 341.039C245.636 348.275 226.91 352 208 352C189.09 352 170.364 348.275 152.894 341.039C135.423 333.802 119.548 323.195 106.177 309.823C92.805 296.452 82.198 280.577 74.9613 263.106C67.7247 245.636 64 226.91 64 208C64 189.09 67.7247 170.364 74.9613 152.894C82.198 135.423 92.805 119.548 106.177 106.177C119.548 92.805 135.423 82.198 152.894 74.9613C170.364 67.7247 189.09 64 208 64C226.91 64 245.636 67.7247 263.106 74.9613C280.577 82.198 296.452 92.805 309.823 106.177C323.195 119.548 333.802 135.423 341.039 152.894C348.275 170.364 352 189.09 352 208C352 226.91 348.275 245.636 341.039 263.106C333.802 280.577 323.195 296.452 309.823 309.823C296.452 323.195 280.577 333.802 263.106 341.039Z" fill="#BD34FE"/>
<path d="M242.904 373V209.364H298.195C311.033 209.364 321.526 211.681 329.676 216.315C337.879 220.896 343.952 227.102 347.894 234.932C351.835 242.762 353.806 251.498 353.806 261.139C353.806 270.781 351.835 279.543 347.894 287.426C344.005 295.31 337.986 301.596 329.836 306.283C321.686 310.917 311.246 313.234 298.515 313.234H258.884V295.656H297.876C306.665 295.656 313.723 294.138 319.049 291.102C324.376 288.066 328.238 283.964 330.635 278.797C333.085 273.577 334.31 267.691 334.31 261.139C334.31 254.587 333.085 248.728 330.635 243.561C328.238 238.394 324.35 234.346 318.97 231.416C313.59 228.433 306.452 226.942 297.556 226.942H262.72V373H242.904Z" fill="white"/>
<path d="M194.369 63.3636V227H175.193L86.0241 98.5199H84.4261V227H64.6108V63.3636H83.7869L173.276 192.163H174.874V63.3636H194.369Z" fill="white"/>
</svg>
